<?xml version="1.0" standalone="no"?><!DOCTYPE svg PUBLIC "-//W3C//DTD SVG 1.1//EN" "http://www.w3.org/Graphics/SVG/1.1/DTD/svg11.dtd"><svg t="1746340868658" class="icon" viewBox="0 0 1024 1024" version="1.1" xmlns="http://www.w3.org/2000/svg" p-id="10429" xmlns:xlink="http://www.w3.org/1999/xlink" width="200" height="200"><path d="M496 128c12.266667 0 24.554667 4.501333 33.941333 13.504l352.021334 337.92a44.8 44.8 0 0 1 0 65.130667l-352 337.941333a49.429333 49.429333 0 0 1-67.904 0 44.8 44.8 0 0 1 0-65.173333L735.637333 554.666667H170.666667a42.666667 42.666667 0 1 1 0-85.333334h565.034666L462.058667 206.656a44.714667 44.714667 0 0 1-2.56-62.485333l2.56-2.645334A48.704 48.704 0 0 1 495.978667 128z" fill="#231815" p-id="10430"></path></svg>