<?xml version="1.0" standalone="no"?><!DOCTYPE svg PUBLIC "-//W3C//DTD SVG 1.1//EN" "http://www.w3.org/Graphics/SVG/1.1/DTD/svg11.dtd"><svg t="1746340806737" class="icon" viewBox="0 0 2048 1024" version="1.1" xmlns="http://www.w3.org/2000/svg" p-id="3614" xmlns:xlink="http://www.w3.org/1999/xlink" width="400" height="200"><path d="M87.741935 485.16129h-30.967741c-14.451613 0-25.806452 11.354839-25.806452 25.806452s11.354839 25.806452 25.806452 25.806452h30.967741c14.451613 0 25.806452-11.354839 25.806452-25.806452s-11.354839-25.806452-25.806452-25.806452z m113.548388 0h-30.967742c-14.451613 0-25.806452 11.354839-25.806452 25.806452s11.354839 25.806452 25.806452 25.806452h30.967742c14.451613 0 25.806452-11.354839 25.806451-25.806452s-11.354839-25.806452-25.806451-25.806452z m113.548387 0h-30.967742c-14.451613 0-25.806452 11.354839-25.806452 25.806452s11.354839 25.806452 25.806452 25.806452h30.967742c14.451613 0 25.806452-11.354839 25.806451-25.806452s-11.354839-25.806452-25.806451-25.806452z m113.548387 0h-30.967742c-14.451613 0-25.806452 11.354839-25.806452 25.806452s11.354839 25.806452 25.806452 25.806452h30.967742c14.451613 0 25.806452-11.354839 25.806451-25.806452s-11.354839-25.806452-25.806451-25.806452z m113.548387 0h-30.967742c-14.451613 0-25.806452 11.354839-25.806452 25.806452s11.354839 25.806452 25.806452 25.806452h30.967742c14.451613 0 25.806452-11.354839 25.806451-25.806452s-11.354839-25.806452-25.806451-25.806452z m113.548387 0h-30.967742c-14.451613 0-25.806452 11.354839-25.806452 25.806452s11.354839 25.806452 25.806452 25.806452h30.967742c14.451613 0 25.806452-11.354839 25.806452-25.806452s-11.354839-25.806452-25.806452-25.806452z m113.548387 0h-30.967742c-14.451613 0-25.806452 11.354839-25.806451 25.806452s11.354839 25.806452 25.806451 25.806452h30.967742c14.451613 0 25.806452-11.354839 25.806452-25.806452s-11.354839-25.806452-25.806452-25.806452z m113.548387 0h-30.967742c-14.451613 0-25.806452 11.354839-25.806451 25.806452s11.354839 25.806452 25.806451 25.806452h30.967742c14.451613 0 25.806452-11.354839 25.806452-25.806452s-11.354839-25.806452-25.806452-25.806452z m103.225807 0h-20.645162c-14.451613 0-25.806452 11.354839-25.806451 25.806452s11.354839 25.806452 25.806451 25.806452h20.645162c14.451613 0 25.806452-11.354839 25.806451-25.806452s-11.354839-25.806452-25.806451-25.806452zM1099.354839 485.16129h-30.967742c-14.451613 0-25.806452 11.354839-25.806452 25.806452s11.354839 25.806452 25.806452 25.806452h30.967742c14.451613 0 25.806452-11.354839 25.806451-25.806452s-11.354839-25.806452-25.806451-25.806452z m113.548387 0h-30.967742c-14.451613 0-25.806452 11.354839-25.806452 25.806452s11.354839 25.806452 25.806452 25.806452h30.967742c14.451613 0 25.806452-11.354839 25.806451-25.806452s-11.354839-25.806452-25.806451-25.806452z m113.548387 0h-30.967742c-14.451613 0-25.806452 11.354839-25.806452 25.806452s11.354839 25.806452 25.806452 25.806452h30.967742c14.451613 0 25.806452-11.354839 25.806452-25.806452s-11.354839-25.806452-25.806452-25.806452z m113.548387 0h-30.967742c-14.451613 0-25.806452 11.354839-25.806452 25.806452s11.354839 25.806452 25.806452 25.806452h30.967742c14.451613 0 25.806452-11.354839 25.806452-25.806452s-11.354839-25.806452-25.806452-25.806452z m113.548387 0h-30.967742c-14.451613 0-25.806452 11.354839-25.806451 25.806452s11.354839 25.806452 25.806451 25.806452h30.967742c14.451613 0 25.806452-11.354839 25.806452-25.806452s-11.354839-25.806452-25.806452-25.806452z m113.548387 0h-30.967742c-14.451613 0-25.806452 11.354839-25.806451 25.806452s11.354839 25.806452 25.806451 25.806452h30.967742c14.451613 0 25.806452-11.354839 25.806452-25.806452s-11.354839-25.806452-25.806452-25.806452z m113.548387 0h-30.967742c-14.451613 0-25.806452 11.354839-25.806451 25.806452s11.354839 25.806452 25.806451 25.806452h30.967742c14.451613 0 25.806452-11.354839 25.806452-25.806452s-11.354839-25.806452-25.806452-25.806452z m113.548387 0h-30.967742c-14.451613 0-25.806452 11.354839-25.806451 25.806452s11.354839 25.806452 25.806451 25.806452h30.967742c14.451613 0 25.806452-11.354839 25.806452-25.806452s-11.354839-25.806452-25.806452-25.806452z m103.225807 0h-20.645161c-14.451613 0-25.806452 11.354839-25.806452 25.806452s11.354839 25.806452 25.806452 25.806452h20.645161c14.451613 0 25.806452-11.354839 25.806451-25.806452s-11.354839-25.806452-25.806451-25.806452z" p-id="3615"></path></svg>